<?xml version="1.0" standalone="no"?>
<!DOCTYPE svg PUBLIC "-//W3C//DTD SVG 20010904//EN"
 "http://www.w3.org/TR/2001/REC-SVG-20010904/DTD/svg10.dtd">
<svg version="1.0" xmlns="http://www.w3.org/2000/svg"
 width="225.000000pt" height="225.000000pt" viewBox="0 0 225.000000 225.000000"
 preserveAspectRatio="xMidYMid meet">

<g transform="translate(0.000000,225.000000) scale(0.100000,-0.100000)"
fill="#000000" stroke="none">
<path d="M1011 2012 c-13 -25 1 -45 54 -79 25 -15 45 -31 45 -35 0 -5 -20 -8
-43 -8 -67 0 -193 -36 -282 -79 -492 -243 -587 -917 -181 -1287 123 -113 216
-151 216 -89 0 19 -15 35 -68 70 -383 251 -439 780 -117 1100 89 89 160 135
262 170 68 24 201 50 210 41 3 -2 -7 -22 -21 -43 -14 -20 -26 -45 -26 -55 0
-20 32 -40 52 -33 17 7 130 179 132 202 1 21 -168 142 -201 143 -12 0 -27 -8
-32 -18z"/>
<path d="M1497 1789 c-34 -19 -20 -54 36 -89 123 -79 234 -226 285 -377 23
-69 26 -93 26 -218 0 -125 -3 -148 -27 -220 -37 -110 -89 -196 -172 -280 -73
-74 -155 -130 -241 -163 -47 -19 -195 -54 -201 -49 -1 2 11 23 27 47 17 25 30
52 30 61 0 23 -26 42 -47 35 -25 -8 -143 -193 -136 -212 8 -21 178 -134 201
-134 21 0 42 18 42 37 0 7 -23 30 -51 50 l-52 37 64 13 c259 53 461 208 570
438 59 126 73 191 73 340 0 93 -5 148 -18 195 -43 159 -157 334 -277 424 -85
64 -110 77 -132 65z"/>
<path d="M1356 1474 c-9 -8 -16 -28 -16 -44 0 -24 -5 -29 -32 -35 -79 -17
-138 -79 -138 -145 0 -66 60 -124 161 -155 147 -45 182 -68 177 -112 -5 -43
-50 -68 -121 -68 -72 0 -124 26 -134 65 -8 36 -22 50 -50 50 -29 0 -37 -19
-29 -63 8 -45 58 -93 117 -114 44 -16 48 -21 51 -52 6 -68 70 -67 76 2 3 31 7
36 35 41 72 14 137 79 137 139 0 78 -59 130 -193 172 -88 27 -133 49 -141 70
-12 31 -6 55 18 70 89 58 223 28 239 -54 7 -33 30 -45 58 -31 58 32 -16 153
-111 181 -34 10 -40 16 -40 40 0 26 -22 59 -40 59 -5 0 -16 -7 -24 -16z"/>
<path d="M973 1446 c-82 -26 -164 -96 -200 -171 -16 -33 -19 -34 -76 -37 -44
-2 -63 -8 -71 -21 -19 -30 4 -52 60 -55 l49 -3 -1 -42 -1 -42 -48 -5 c-55 -6
-77 -28 -56 -54 9 -11 31 -16 70 -16 56 -1 56 -1 74 -40 24 -52 95 -122 150
-149 49 -24 143 -44 168 -36 22 7 31 32 19 54 -6 12 -26 20 -60 24 -67 8 -147
52 -182 102 l-30 40 80 3 c86 3 109 15 97 51 -5 18 -16 21 -103 23 l-97 3 -3
42 -3 42 97 3 c79 2 99 6 108 20 8 13 8 23 0 35 -9 14 -29 19 -93 23 l-82 5
36 43 c44 50 95 79 167 92 65 13 84 29 69 59 -14 25 -70 28 -138 7z"/>
</g>
</svg>
